<?xml version="1.0" standalone="no"?>
<!DOCTYPE svg PUBLIC "-//W3C//DTD SVG 20010904//EN"
 "http://www.w3.org/TR/2001/REC-SVG-20010904/DTD/svg10.dtd">
<svg version="1.0" xmlns="http://www.w3.org/2000/svg"
 width="100.000000pt" height="100.000000pt" viewBox="0 0 100.000000 100.000000"
 preserveAspectRatio="xMidYMid meet">
<metadata>
Created by potrace 1.14, written by Peter Selinger 2001-2017
</metadata>
<g transform="translate(0.000000,100.000000) scale(0.100000,-0.100000)"
fill="#000000" stroke="none">
<path d="M392 983 c-6 -2 -10 -9 -7 -14 4 -5 -1 -6 -9 -3 -9 3 -23 3 -32 0
-14 -5 -14 -7 0 -22 21 -20 20 -34 -1 -34 -10 -1 -34 -3 -54 -6 -21 -3 -40 -1
-44 5 -13 21 -35 11 -35 -15 0 -17 12 -38 35 -60 22 -21 31 -35 24 -40 -6 -3
-17 -21 -25 -39 -7 -18 -43 -65 -79 -104 -36 -39 -65 -75 -65 -79 0 -4 12 -25
26 -46 22 -31 31 -37 52 -33 17 3 30 -1 38 -11 10 -14 14 -14 29 -2 10 8 25
15 33 15 10 0 19 13 23 32 3 18 12 40 19 48 10 13 93 55 107 55 6 0 -15 -37
-30 -52 -7 -7 -35 -42 -61 -77 -76 -98 -88 -159 -40 -186 27 -14 34 -28 23
-41 -5 -7 -8 -18 -7 -25 2 -8 -8 -15 -22 -17 -29 -4 -60 -29 -60 -49 0 -7 -9
-21 -20 -30 -11 -10 -20 -24 -20 -31 0 -16 39 -51 57 -52 6 0 21 -11 31 -25
20 -25 22 -26 179 -27 166 -1 279 7 322 24 14 5 28 8 29 6 2 -2 10 14 17 35
13 39 10 77 -7 77 -5 0 -7 9 -3 19 7 24 -34 71 -63 71 -14 0 -27 11 -37 29
-14 28 -13 31 10 59 14 17 25 35 25 40 0 6 14 19 30 29 17 9 30 21 30 25 0 4
6 8 13 8 17 0 41 43 35 62 -3 7 2 18 9 23 12 9 12 16 2 37 -6 15 -8 34 -4 45
5 10 9 32 9 48 1 17 4 35 7 40 11 19 -4 98 -24 123 -7 9 -7 16 1 24 24 24 14
41 -19 34 -26 -5 -38 0 -76 34 -31 27 -55 40 -74 40 -16 0 -29 5 -29 11 0 11
-39 9 -132 -5 -27 -5 -46 -1 -70 14 -34 20 -43 22 -66 13z"/>
</g>
</svg>
